# xmcd
# 
# Track frame offsets:
#     150
#     21445
#     41574
#     61631
#     77887
#     96450
#     112787
#     135395
#     149246
#     164793
#     182356
#     201743
#     221850
#     235592
#     251715
#     271278
#     284442
#     301211
#     320666
#     339741
# 
# Disc length: 4735
# 
# Revision: 1
# Processed by: cddbd v1.5.2PL0 Copyright (c) Steve Scherf et al.
# Submitted via: fre:ac v1.0.17
# 
DISCID=39127d14
DTITLE=Various Artist - Classic Rock - The Collection CD 2
DYEAR=0
DGENRE=
TTITLE0=The Doobie Brothers - Listen To The Music
TTITLE1=Chris Rea - The Road To Hell pt.2
TTITLE2=Yes - Owner of a Lonely Heart
TTITLE3=Jet - Are You Gonna Be My Girl
TTITLE4=The Stooges - 1969
TTITLE5=The Darkness - I Believe In A Thing Called Love
TTITLE6=Television - Prove It
TTITLE7=Joe Walsh - I Can Play That Rock and Roll
TTITLE8=The Georgia Satellites - Keep Your Hands To Yoourself
TTITLE9=Elivis Costello - The Other Side Of Summer
TTITLE10=Damn Yankees - Coming Of Age
TTITLE11=Blackfoot - Highway Song
TTITLE12=Twisted Sister - I Wanna Rock
TTITLE13=Honeymoon Suite - New Girl Now
TTITLE14=Skid Row - Monkey Business
TTITLE15=Iron Butterfly - In-A-Gadda-Da-Vida
TTITLE16=Tony Joe White - Polk Salad Annie
TTITLE17=White Lion - When The Children Cry
TTITLE18=Marc Cohn - Walking In Memphis
TTITLE19=Mr. Big - To Be With You
EXTD=
EXTT0=
EXTT1=
EXTT2=
EXTT3=
EXTT4=
EXTT5=
EXTT6=
EXTT7=
EXTT8=
EXTT9=
EXTT10=
EXTT11=
EXTT12=
EXTT13=
EXTT14=
EXTT15=
EXTT16=
EXTT17=
EXTT18=
EXTT19=
PLAYORDER=
